Coordinates
version=1
nRows=29
nColumns=22
inDegrees=yes

Units are S.I. units (second, meters, Newtons, ...)
If the header above contains a line with 'inDegrees', this indicates whether rotational values are in degrees (yes) or radians (no).

endheader
time	pelvis_tilt	pelvis_list	pelvis_rotation	pelvis_tx	pelvis_ty	pelvis_tz	hip_flexion_r	hip_adduction_r	hip_rotation_r	knee_angle_r	ankle_angle_r	subtalar_angle_r	hip_flexion_l	hip_adduction_l	hip_rotation_l	knee_angle_l	ankle_angle_l	subtalar_angle_l	lumbar_extension	lumbar_bending	lumbar_rotation
      0.01000000	      0.44621112	     -2.12524284	      1.92316887	      1.06894114	      0.93353642	     -0.01097054	      4.01441632	      1.31718983	    -14.26098002	    -17.43539557	     11.62539319	     -0.78590138	      6.35258065	     -3.31094613	     -6.98474350	    -22.49687752	     13.99849669	     -3.34332315	     -6.83320380	     -0.91219387	     -6.30741839
      0.02000000	      0.44189967	     -2.12004369	      1.92962355	      1.06897034	      0.93355173	     -0.01085879	      4.01658438	      1.32062388	    -14.25977850	    -17.43357419	     11.62774446	     -0.78623554	      6.35400303	     -3.31241508	     -6.98367412	    -22.49272874	     13.99384152	     -3.34491146	     -6.84163126	     -0.91045926	     -6.30944567
      0.03000000	      0.44727334	     -2.11535679	      1.93859467	      1.06902113	      0.93358078	     -0.01072603	      4.00964814	      1.32762156	    -14.24204006	    -17.43920896	     11.64287793	     -0.79340613	      6.34324372	     -3.30867345	     -6.93346802	    -22.48736741	     13.95879280	     -3.35705629	     -6.86004659	     -0.90519819	     -6.32586789
      0.04000000	      0.45640004	     -2.10441089	      1.94637916	      1.06910569	      0.93361689	     -0.01056522	      3.98961962	      1.32985870	    -14.24276444	    -17.43162965	     11.64954226	     -0.80699594	      6.32560344	     -3.29721705	     -6.87170566	    -22.48138945	     13.94932738	     -3.36914334	     -6.88089408	     -0.91007380	     -6.32652981
      0.05000000	      0.45437980	     -2.09751829	      1.93989753	      1.06922001	      0.93363227	     -0.01035406	      3.98595591	      1.33673711	    -14.24377840	    -17.43405685	     11.64981478	     -0.80827950	      6.32024926	     -3.30043874	     -6.86247340	    -22.48393047	     13.94856480	     -3.37035588	     -6.88285297	     -0.91253519	     -6.33012594
      0.06000000	      0.46889144	     -2.09411272	      1.95428233	      1.06928557	      0.93367806	     -0.01017665	      3.96579054	      1.35000268	    -14.22590644	    -17.43741475	     11.65123391	     -0.82133800	      6.29605127	     -3.29536389	     -6.77587128	    -22.47225553	     13.94159587	     -3.38021113	     -6.91652943	     -0.90382969	     -6.34209869
      0.07000000	      0.49198269	     -2.08034312	      1.98415591	      1.06940727	      0.93375725	     -0.01000753	      3.90991407	      1.35311532	    -14.26412476	    -17.39936216	     11.63851693	     -0.85170913	      6.24505402	     -3.28167305	     -6.70807781	    -22.42959625	     13.92788739	     -3.40206239	     -6.95236616	     -0.90979707	     -6.38318252
      0.08000000	      0.48366480	     -2.07160093	      1.99197746	      1.06944518	      0.93377542	     -0.00979975	      3.91421335	      1.36004421	    -14.26501281	    -17.39705264	     11.63854240	     -0.85215813	      6.24664166	     -3.28508593	     -6.71039038	    -22.41871585	     13.92740264	     -3.40255092	     -6.96369555	     -0.91068639	     -6.38497201
      0.09000000	      0.46755086	     -2.06185761	      2.00891625	      1.06950775	      0.93379624	     -0.00960541	      3.92007637	      1.36609566	    -14.27048496	    -17.38657958	     11.63221717	     -0.85733968	      6.23299054	     -3.28609405	     -6.71613692	    -22.36104812	     13.91246308	     -3.40532817	     -6.95836473	     -0.91092928	     -6.41642213
      0.10000000	      0.44970504	     -2.04205962	      2.02507294	      1.06952736	      0.93382019	     -0.00943269	      3.92654538	      1.35867057	    -14.28618867	    -17.36764672	     11.61907572	     -0.86602056	      6.22652201	     -3.27338918	     -6.71569281	    -22.30865089	     13.88139454	     -3.40747893	     -6.96211064	     -0.91834609	     -6.44439094
      0.11000000	      0.43891861	     -2.03123693	      2.04221146	      1.06950591	      0.93383348	     -0.00925400	      3.93480380	      1.36185732	    -14.28752753	    -17.36253023	     11.61837506	     -0.86672996	      6.23369032	     -3.27515505	     -6.72210233	    -22.29122917	     13.87876893	     -3.40746892	     -6.97998220	     -0.91710985	     -6.44468001
      0.12000000	      0.41840638	     -2.01380986	      2.05271290	      1.06954493	      0.93384242	     -0.00908075	      3.94706299	      1.35566173	    -14.30801082	    -17.35113474	     11.60680181	     -0.87494568	      6.23123299	     -3.26682714	     -6.73793284	    -22.24320520	     13.83914608	     -3.40646447	     -6.97241250	     -0.91994476	     -6.47621545
      0.13000000	      0.41105874	     -2.00308841	      2.05815640	      1.06955896	      0.93384999	     -0.00889672	      3.95057396	      1.35798320	    -14.30907571	    -17.34830516	     11.60643346	     -0.87564394	      6.23793759	     -3.26740878	     -6.73894493	    -22.23721235	     13.83613056	     -3.40612895	     -6.98556595	     -0.91619743	     -6.47520081
      0.14000000	      0.40538772	     -1.99268968	      2.05563548	      1.06958628	      0.93385535	     -0.00870151	      3.95279678	      1.36032943	    -14.31036203	    -17.34490169	     11.60589430	     -0.87684209	      6.24407683	     -3.26804903	     -6.73620314	    -22.23797266	     13.83023822	     -3.40564277	     -6.99726596	     -0.91086035	     -6.47528324
      0.15000000	      0.40944947	     -1.98692906	      2.05691906	      1.06959240	      0.93386702	     -0.00850304	      3.94624020	      1.36948461	    -14.29968749	    -17.34334334	     11.60226099	     -0.88532405	      6.26385784	     -3.27379708	     -6.70934694	    -22.28004836	     13.79493160	     -3.40199736	     -7.02167939	     -0.90042957	     -6.46784216
      0.16000000	      0.41406803	     -1.98934748	      2.05546552	      1.06958958	      0.93387986	     -0.00828134	      3.93839393	      1.39020454	    -14.28861632	    -17.33553835	     11.59865597	     -0.89643695	      6.28303676	     -3.28962569	     -6.68448010	    -22.31989728	     13.77422654	     -3.39446397	     -7.04870507	     -0.88136524	     -6.46416207
      0.17000000	      0.42350671	     -1.99492634	      2.05195240	      1.06957597	      0.93389725	     -0.00803986	      3.92649754	      1.41519237	    -14.27561789	    -17.32695968	     11.59207714	     -0.90874154	      6.30268824	     -3.31089247	     -6.65590096	    -22.37104922	     13.76508112	     -3.38456584	     -7.08372961	     -0.85892163	     -6.45463297
      0.18000000	      0.43915812	     -2.02760400	      2.05318066	      1.06956519	      0.93392700	     -0.00777073	      3.89628648	      1.47655984	    -14.26403806	    -17.29280594	     11.56673077	     -0.94440346	      6.32133625	     -3.36709186	     -6.63467125	    -22.42887317	     13.76981638	     -3.35314618	     -7.12283232	     -0.80428448	     -6.45805674
      0.19000000	      0.45212550	     -2.02054489	      2.04264375	      1.06951393	      0.93395404	     -0.00749300	      3.89033924	      1.48720789	    -14.25394120	    -17.29726427	     11.55913683	     -0.95321806	      6.33797168	     -3.37489305	     -6.60331749	    -22.47978680	     13.76583486	     -3.34573537	     -7.16731802	     -0.79813946	     -6.43551882
      0.20000000	      0.46831681	     -2.02333321	      2.03393978	      1.06943788	      0.93398820	     -0.00719894	      3.88337307	      1.51130502	    -14.24222815	    -17.30236544	     11.54982980	     -0.96744890	      6.35369891	     -3.39544798	     -6.57502327	    -22.52959069	     13.75776929	     -3.33599533	     -7.21997814	     -0.78044777	     -6.41662887
      0.21000000	      0.48569083	     -2.02430553	      2.01965872	      1.06935963	      0.93402756	     -0.00688892	      3.87835213	      1.53350328	    -14.23159863	    -17.31136272	     11.53823527	     -0.98381065	      6.36490845	     -3.41536161	     -6.55070124	    -22.57741274	     13.74960196	     -3.32622380	     -7.27122485	     -0.76478557	     -6.40011722
      0.22000000	      0.50363853	     -2.02362138	      2.00594049	      1.06925330	      0.93407106	     -0.00657927	      3.87952072	      1.55348808	    -14.21919203	    -17.32923703	     11.52455933	     -1.00451935	      6.37253470	     -3.43431002	     -6.53534064	    -22.61504513	     13.74067222	     -3.31512238	     -7.32777928	     -0.75037640	     -6.38536660
      0.23000000	      0.52254059	     -2.01830129	      1.98717830	      1.06913425	      0.93411797	     -0.00626904	      3.88766451	      1.56657667	    -14.20379928	    -17.36079658	     11.51117683	     -1.02795068	      6.37432175	     -3.44838702	     -6.52823082	    -22.64423119	     13.73017335	     -3.30373363	     -7.38512917	     -0.74017849	     -6.37194242
      0.24000000	      0.54334743	     -2.00806792	      1.96364070	      1.06899166	      0.93416567	     -0.00595854	      3.90555234	      1.57210366	    -14.18227611	    -17.41048540	     11.49936103	     -1.05446250	      6.36973652	     -3.45736821	     -6.53072262	    -22.66481600	     13.71690563	     -3.29189589	     -7.44641318	     -0.73496370	     -6.35845306
      0.25000000	      0.57225845	     -1.97190708	      1.90211212	      1.06886259	      0.93423139	     -0.00559706	      3.92669417	      1.54851179	    -14.13007331	    -17.48147592	     11.50094208	     -1.14874238	      6.33208563	     -3.44626438	     -6.60819900	    -22.65353811	     13.68122741	     -3.24775739	     -7.51511244	     -0.76454564	     -6.29387985
      0.26000000	      0.59050012	     -1.95969360	      1.88444407	      1.06867893	      0.93426579	     -0.00530214	      3.95942071	      1.55010356	    -14.09667759	    -17.54882143	     11.49897851	     -1.16423842	      6.32771569	     -3.44983273	     -6.59972337	    -22.66221436	     13.66986897	     -3.24151946	     -7.57682096	     -0.75787425	     -6.30215029
      0.27000000	      0.61184894	     -1.90905562	      1.82439968	      1.06849691	      0.93430511	     -0.00494669	      4.01152573	      1.50409205	    -14.04498998	    -17.65734008	     11.51667403	     -1.22740122	      6.29891424	     -3.42022576	     -6.66831380	    -22.64610103	     13.63125080	     -3.21474692	     -7.64202864	     -0.80308581	     -6.24381982
      0.28000000	      0.63236803	     -1.89528147	      1.80510520	      1.06828397	      0.93433383	     -0.00463079	      4.05181410	      1.50321586	    -14.00767217	    -17.73904470	     11.51482614	     -1.24339897	      6.29317328	     -3.42500217	     -6.66659905	    -22.65405080	     13.61586272	     -3.20944336	     -7.70889149	     -0.79778579	     -6.25401015
      0.29000000	      0.65171052	     -1.84396546	      1.74933827	      1.06806984	      0.93435929	     -0.00424580	      4.11053199	      1.45839501	    -13.96130481	    -17.85175484	     11.53630787	     -1.30252153	      6.27355084	     -3.39810153	     -6.73895304	    -22.64571026	     13.57274679	     -3.18632770	     -7.77536093	     -0.84632175	     -6.20080099
